<svg aria-hidden="true" style="position:absolute;width:0;height:0" xmlns="http://www.w3.org/2000/svg" overflow="hidden">
<defs>
<symbol id="icon-favorite" viewBox="0 0 32 32"><path fill="#FF6B08" d="M16 30.144l-2.24-2.217C5.44 20.64 0 15.726 0 9.71 0 4.793 3.84.995 8.8.995c2.72.002 5.44 1.269 7.2 3.326A9.64 9.64 0 0123.195.998h.005c4.96 0 8.8 3.801 8.8 8.711 0 6.021-5.44 10.933-13.76 18.217L16 30.145z"/></symbol>
<symbol id="icon-film" viewBox="0 0 32 32"><path fill="none" stroke="var(--color2, #818181)" stroke-linejoin="round" stroke-linecap="round" stroke-width="2.667" d="M26.427 2.667H5.574a2.907 2.907 0 00-2.907 2.907v20.853a2.907 2.907 0 002.907 2.907v0h20.853a2.907 2.907 0 002.907-2.907v0V5.574a2.907 2.907 0 00-2.907-2.907v0zm-17.094 0v26.667M22.667 2.667v26.667M2.667 16h26.667M2.667 9.333h6.667M2.667 22.667h6.667m13.333 0h6.667M22.667 9.333h6.667"/></symbol>
<symbol id="icon-search" viewBox="0 0 32 32"><path fill="none" stroke="var(--color3, #fff)" stroke-linejoin="round" stroke-linecap="round" stroke-width="2.667" d="M14.667 25.333c5.891 0 10.667-4.776 10.667-10.667S20.558 3.999 14.667 3.999v0C8.776 3.999 4 8.775 4 14.666s4.776 10.667 10.667 10.667v0zM28 28l-5.8-5.8"/></symbol>
<symbol id="icon-close" viewBox="0 0 30 30"><path d="M8 8L22 22" stroke="#000" stroke-width="2"/><path d="M8 22L22 8" stroke="#000" stroke-width="2"/></symbol>
<symbol id="icon-arrow-left" viewBox="0 0 16 16"><path d="M12.6666 8H3.33325" stroke="#000" stroke-width="1.33333" stroke-linecap="round" stroke-linejoin="round"/><path d="M7.99992 12.6668L3.33325 8.00016L7.99992 3.3335" stroke="#000" stroke-width="1.33333" stroke-linecap="round" stroke-linejoin="round"/></symbol>
<symbol id="icon-arrow-right" viewBox="0 0 16 16"><path d="M3.33341 8H12.6667" stroke="#000" stroke-width="1.33333" stroke-linecap="round" stroke-linejoin="round"/><path d="M8.00008 12.6668L12.6667 8.00016L8.00008 3.3335" stroke="#000" stroke-width="1.33333" stroke-linecap="round" stroke-linejoin="round"/></symbol>
</defs>
</svg>